<svg xmlns="http://www.w3.org/2000/svg" xmlns:xlink="http://www.w3.org/1999/xlink" width="500" zoomAndPan="magnify" viewBox="0 0 375 374.999991" height="500" preserveAspectRatio="xMidYMid meet" version="1.0"><defs><g/><clipPath id="2fdcfcad3f"><path d="M 144 99.257812 L 224 99.257812 L 224 163 L 144 163 Z M 144 99.257812 " clip-rule="nonzero"/></clipPath><clipPath id="1458ba4722"><path d="M 83 162 L 271.925781 162 L 271.925781 249.257812 L 83 249.257812 Z M 83 162 " clip-rule="nonzero"/></clipPath></defs><g clip-path="url(#2fdcfcad3f)"><path fill="#5ec232" d="M 182.035156 162.335938 C 181.542969 157.039062 183.6875 139.851562 203.710938 132.898438 C 221.46875 126.730469 224.507812 112.105469 222.945312 99.347656 C 222.945312 99.347656 217.71875 107.910156 200.636719 110.398438 C 175.511719 114.054688 183.855469 134.691406 183.855469 134.691406 C 183.855469 134.691406 191.308594 125.8125 205.851562 124.628906 C 205.851562 124.628906 183.660156 130.683594 175.78125 149.09375 C 170.511719 136.972656 157.183594 132.945312 157.183594 132.945312 C 167.363281 133.777344 172.582031 139.992188 172.582031 139.992188 C 172.582031 139.992188 178.417969 125.550781 160.835938 122.988281 C 148.882812 121.25 145.222656 115.257812 145.222656 115.257812 C 144.128906 124.183594 146.257812 134.417969 158.683594 138.738281 C 169.269531 142.410156 173.675781 148.992188 172.582031 162.335938 C 174.507812 162.335938 175.503906 162.332031 177.433594 162.328125 C 179.667969 162.332031 179.804688 162.335938 182.035156 162.335938 " fill-opacity="1" fill-rule="nonzero"/></g><path fill="#7e4d29" d="M 171.449219 165.105469 L 171.472656 165.097656 L 171.449219 165.105469 " fill-opacity="1" fill-rule="nonzero"/><g clip-path="url(#1458ba4722)"><path fill="#8b552e" d="M 269.1875 163.441406 C 266.441406 163.367188 263.109375 163.265625 259.289062 163.183594 C 257.375 163.140625 255.34375 163.09375 253.195312 163.046875 C 251.054688 163.007812 248.796875 162.964844 246.445312 162.921875 C 244.09375 162.878906 241.644531 162.832031 239.105469 162.789062 C 236.570312 162.753906 233.949219 162.714844 231.25 162.679688 C 225.859375 162.609375 220.175781 162.53125 214.292969 162.484375 C 211.351562 162.464844 208.363281 162.441406 205.335938 162.417969 C 202.308594 162.402344 199.246094 162.386719 196.15625 162.371094 C 192.15625 162.351562 188.113281 162.34375 184.058594 162.335938 C 181.851562 162.335938 179.644531 162.332031 177.433594 162.328125 C 175.503906 162.332031 173.578125 162.335938 171.648438 162.335938 C 167.3125 162.34375 162.988281 162.351562 158.710938 162.371094 C 155.621094 162.390625 152.558594 162.40625 149.53125 162.421875 C 146.503906 162.445312 143.515625 162.46875 140.574219 162.488281 C 134.691406 162.53125 129.007812 162.617188 123.617188 162.683594 C 120.921875 162.722656 118.296875 162.746094 115.761719 162.792969 C 113.226562 162.839844 110.773438 162.882812 108.421875 162.925781 C 106.070312 162.96875 103.8125 163.007812 101.667969 163.050781 C 99.523438 163.097656 97.492188 163.144531 95.578125 163.1875 C 91.757812 163.269531 88.421875 163.367188 85.679688 163.441406 C 82.933594 163.511719 82.933594 163.921875 85.679688 163.992188 C 88.421875 164.066406 91.757812 164.167969 95.578125 164.246094 C 97.492188 164.289062 99.523438 164.335938 101.667969 164.382812 C 103.8125 164.425781 106.070312 164.464844 108.421875 164.511719 C 110.773438 164.550781 113.226562 164.59375 115.761719 164.640625 C 118.296875 164.6875 120.921875 164.710938 123.617188 164.75 C 129.007812 164.816406 134.691406 164.902344 140.574219 164.945312 C 143.515625 164.964844 146.503906 164.988281 149.53125 165.011719 C 152.558594 165.027344 155.621094 165.046875 158.710938 165.0625 C 162.929688 165.082031 167.191406 165.089844 171.472656 165.097656 L 172.367188 165.097656 C 172.335938 165.445312 172.320312 165.765625 172.316406 165.835938 C 172.257812 166.488281 172.253906 167.183594 171.941406 167.773438 C 171.625 168.371094 170.921875 168.683594 170.292969 168.839844 C 168.199219 169.363281 165.949219 168.878906 163.890625 168.433594 C 162.972656 168.238281 162.027344 168.007812 160.957031 167.808594 C 159.90625 167.617188 158.8125 167.46875 157.660156 167.433594 C 156.511719 167.402344 155.304688 167.472656 154.082031 167.769531 C 152.863281 168.070312 151.628906 168.617188 150.589844 169.433594 C 150.074219 169.84375 149.640625 170.285156 149.265625 170.707031 C 148.882812 171.128906 148.558594 171.535156 148.246094 171.902344 C 148.09375 172.085938 147.941406 172.265625 147.796875 172.425781 C 147.644531 172.585938 147.492188 172.742188 147.34375 172.902344 C 147.183594 173.046875 147.027344 173.199219 146.863281 173.34375 L 146.609375 173.554688 C 146.527344 173.625 146.445312 173.695312 146.355469 173.761719 C 144.96875 174.832031 143.332031 175.578125 141.664062 175.945312 C 140.828125 176.125 139.988281 176.214844 139.160156 176.210938 C 138.332031 176.210938 137.5 176.109375 136.6875 175.964844 C 135.054688 175.671875 133.496094 175.191406 132.035156 174.75 C 130.574219 174.300781 129.203125 173.894531 127.953125 173.621094 C 126.707031 173.339844 125.574219 173.207031 124.640625 173.183594 C 123.703125 173.167969 122.964844 173.246094 122.46875 173.339844 C 122.347656 173.355469 122.238281 173.378906 122.144531 173.402344 C 122.050781 173.421875 121.972656 173.4375 121.90625 173.453125 C 121.84375 173.464844 121.796875 173.476562 121.765625 173.484375 C 121.730469 173.488281 121.714844 173.496094 121.714844 173.496094 C 120.980469 173.699219 121.265625 174.574219 121.914062 174.453125 C 121.914062 174.453125 121.929688 174.449219 121.960938 174.445312 C 121.988281 174.441406 122.03125 174.4375 122.089844 174.429688 C 122.148438 174.421875 122.222656 174.414062 122.308594 174.402344 C 122.390625 174.390625 122.492188 174.378906 122.605469 174.371094 C 123.054688 174.328125 123.71875 174.316406 124.5625 174.402344 C 125.40625 174.5 126.421875 174.707031 127.570312 175.070312 C 128.71875 175.429688 129.996094 175.933594 131.414062 176.507812 C 132.832031 177.074219 134.394531 177.714844 136.179688 178.203125 C 137.070312 178.4375 138.019531 178.640625 139.023438 178.730469 C 140.035156 178.828125 141.078125 178.808594 142.125 178.675781 C 142.347656 178.648438 142.570312 178.613281 142.792969 178.574219 C 142.6875 178.929688 142.597656 179.289062 142.515625 179.648438 C 142.351562 180.355469 142.210938 181.074219 142 181.726562 C 141.894531 182.054688 141.765625 182.375 141.613281 182.679688 C 141.488281 182.917969 141.347656 183.144531 141.1875 183.351562 C 140.988281 183.496094 140.761719 183.632812 140.515625 183.753906 C 140.1875 183.90625 139.820312 184.015625 139.433594 184.070312 C 139.046875 184.121094 138.636719 184.113281 138.234375 184.023438 C 137.824219 183.933594 137.355469 183.734375 136.789062 183.652344 C 136.644531 183.636719 136.5 183.625 136.347656 183.632812 C 136.195312 183.640625 136.046875 183.664062 135.902344 183.699219 C 135.621094 183.769531 135.375 183.878906 135.148438 183.992188 C 134.703125 184.222656 134.320312 184.46875 133.953125 184.578125 C 133.769531 184.628906 133.59375 184.648438 133.429688 184.621094 C 133.265625 184.597656 133.085938 184.511719 132.890625 184.429688 C 132.699219 184.34375 132.472656 184.25 132.234375 184.234375 C 132.121094 184.210938 132.007812 184.222656 131.898438 184.230469 C 131.792969 184.246094 131.683594 184.257812 131.589844 184.289062 C 131.199219 184.394531 130.902344 184.566406 130.636719 184.699219 C 130.378906 184.835938 130.152344 184.941406 129.964844 185.011719 C 129.867188 185.039062 129.785156 185.070312 129.710938 185.078125 C 129.671875 185.085938 129.636719 185.09375 129.605469 185.101562 C 129.574219 185.101562 129.542969 185.105469 129.519531 185.105469 C 129.414062 185.117188 129.359375 185.109375 129.359375 185.109375 C 129.210938 185.097656 129.148438 185.308594 129.335938 185.339844 C 129.335938 185.339844 129.402344 185.355469 129.523438 185.355469 C 129.554688 185.355469 129.589844 185.355469 129.628906 185.355469 C 129.664062 185.351562 129.707031 185.347656 129.75 185.34375 C 129.839844 185.335938 129.9375 185.308594 130.046875 185.289062 C 130.265625 185.234375 130.515625 185.136719 130.789062 185.023438 C 131.0625 184.910156 131.367188 184.777344 131.6875 184.722656 C 131.765625 184.703125 131.847656 184.703125 131.925781 184.695312 C 132.007812 184.703125 132.085938 184.699219 132.164062 184.71875 C 132.320312 184.742188 132.472656 184.820312 132.652344 184.921875 C 132.828125 185.015625 133.03125 185.136719 133.296875 185.207031 C 133.558594 185.277344 133.84375 185.269531 134.101562 185.21875 C 134.621094 185.113281 135.058594 184.871094 135.476562 184.703125 C 135.683594 184.621094 135.886719 184.550781 136.078125 184.523438 C 136.171875 184.511719 136.261719 184.503906 136.351562 184.507812 C 136.445312 184.511719 136.539062 184.527344 136.636719 184.546875 C 137.003906 184.628906 137.398438 184.824219 137.863281 184.988281 C 137.714844 185.058594 137.570312 185.140625 137.429688 185.234375 C 137.214844 185.375 137.023438 185.535156 136.855469 185.707031 C 136.515625 186.042969 136.261719 186.398438 136.023438 186.753906 C 135.785156 187.109375 135.582031 187.472656 135.398438 187.828125 C 135.027344 188.546875 134.734375 189.242188 134.441406 189.882812 C 134.148438 190.523438 133.867188 191.113281 133.554688 191.621094 C 132.933594 192.644531 132.207031 193.34375 131.621094 193.703125 C 131.332031 193.886719 131.085938 194 130.914062 194.0625 C 130.828125 194.09375 130.761719 194.121094 130.714844 194.132812 C 130.671875 194.144531 130.648438 194.152344 130.648438 194.152344 C 130.386719 194.226562 130.4375 194.597656 130.742188 194.539062 C 130.742188 194.539062 130.769531 194.535156 130.824219 194.523438 C 130.875 194.511719 130.949219 194.492188 131.046875 194.464844 C 131.246094 194.410156 131.53125 194.308594 131.871094 194.136719 C 132.554688 193.792969 133.421875 193.089844 134.183594 192.046875 C 134.570312 191.527344 134.921875 190.929688 135.273438 190.304688 C 135.628906 189.679688 135.976562 189.019531 136.378906 188.386719 C 136.578125 188.070312 136.789062 187.765625 137.023438 187.472656 C 137.253906 187.179688 137.503906 186.898438 137.761719 186.6875 C 137.894531 186.578125 138.027344 186.488281 138.160156 186.414062 C 138.296875 186.34375 138.441406 186.28125 138.605469 186.230469 C 138.929688 186.128906 139.304688 186.0625 139.726562 185.984375 C 140.144531 185.902344 140.613281 185.804688 141.089844 185.585938 C 141.5625 185.371094 141.992188 185.070312 142.34375 184.726562 C 142.699219 184.382812 142.992188 184 143.238281 183.609375 C 143.480469 183.222656 143.679688 182.820312 143.847656 182.425781 C 144.183594 181.625 144.394531 180.882812 144.609375 180.222656 C 144.902344 179.335938 145.144531 178.367188 145.910156 177.761719 C 146.722656 177.125 147.746094 176.808594 148.59375 176.214844 L 148.941406 175.96875 C 149.171875 175.804688 149.394531 175.621094 149.621094 175.445312 C 149.835938 175.261719 150.054688 175.070312 150.269531 174.878906 C 150.476562 174.683594 150.671875 174.488281 150.863281 174.300781 C 151.609375 173.546875 152.246094 172.886719 152.855469 172.503906 C 153.464844 172.117188 154.15625 171.878906 154.914062 171.757812 C 155.683594 171.648438 156.511719 171.660156 157.359375 171.757812 C 157.847656 171.816406 158.34375 171.90625 158.839844 172.019531 C 158.347656 172.425781 157.863281 172.878906 157.410156 173.394531 C 156.628906 174.265625 155.929688 175.300781 155.402344 176.464844 C 155.136719 177.046875 154.917969 177.660156 154.753906 178.300781 C 154.667969 178.617188 154.601562 178.945312 154.546875 179.269531 C 154.496094 179.589844 154.457031 179.90625 154.429688 180.21875 C 154.3125 181.453125 154.285156 182.589844 154.03125 183.570312 C 153.902344 184.054688 153.726562 184.480469 153.457031 184.902344 C 152.804688 185.945312 151.855469 186.917969 150.980469 187.777344 C 150.628906 188.121094 150.21875 188.433594 149.75 188.59375 C 149.265625 188.757812 148.75 188.835938 148.308594 189.113281 C 148.273438 189.132812 148.242188 189.152344 148.207031 189.171875 L 148.117188 189.242188 C 148.054688 189.285156 147.992188 189.332031 147.933594 189.378906 C 147.824219 189.480469 147.703125 189.574219 147.613281 189.6875 C 147.40625 189.898438 147.25 190.125 147.097656 190.351562 C 146.800781 190.800781 146.5625 191.25 146.300781 191.644531 C 146.042969 192.035156 145.757812 192.382812 145.414062 192.609375 C 145.066406 192.839844 144.621094 193 144.214844 193.261719 C 143.808594 193.519531 143.503906 193.84375 143.25 194.144531 C 143 194.445312 142.796875 194.730469 142.609375 194.972656 C 142.425781 195.21875 142.257812 195.425781 142.113281 195.582031 C 141.964844 195.742188 141.839844 195.855469 141.753906 195.929688 C 141.710938 195.96875 141.675781 195.996094 141.652344 196.015625 C 141.628906 196.03125 141.617188 196.039062 141.617188 196.039062 C 141.484375 196.140625 141.597656 196.339844 141.757812 196.242188 C 141.757812 196.242188 141.769531 196.230469 141.796875 196.21875 C 141.824219 196.199219 141.867188 196.171875 141.914062 196.136719 C 142.015625 196.0625 142.160156 195.953125 142.328125 195.800781 C 142.496094 195.644531 142.691406 195.445312 142.898438 195.214844 C 143.109375 194.984375 143.335938 194.71875 143.597656 194.453125 C 143.859375 194.195312 144.15625 193.9375 144.503906 193.753906 C 144.851562 193.570312 145.300781 193.453125 145.773438 193.203125 C 146.253906 192.941406 146.640625 192.535156 146.96875 192.125 C 147.296875 191.710938 147.574219 191.28125 147.871094 190.90625 C 148.019531 190.726562 148.171875 190.546875 148.332031 190.40625 C 148.410156 190.328125 148.496094 190.273438 148.574219 190.210938 L 148.703125 190.132812 L 148.765625 190.09375 C 148.789062 190.082031 148.808594 190.074219 148.832031 190.0625 C 149.035156 189.957031 149.277344 189.90625 149.554688 189.867188 C 149.457031 190.089844 149.371094 190.320312 149.300781 190.542969 C 149.121094 191.117188 149.019531 191.679688 148.957031 192.21875 C 148.835938 193.304688 148.859375 194.292969 148.855469 195.1875 C 148.859375 196.074219 148.835938 196.867188 148.738281 197.5625 C 148.648438 198.257812 148.492188 198.84375 148.316406 199.300781 C 148.140625 199.765625 147.941406 200.09375 147.796875 200.3125 C 147.71875 200.417969 147.660156 200.5 147.617188 200.554688 C 147.578125 200.609375 147.554688 200.632812 147.554688 200.632812 C 147.304688 200.921875 147.652344 201.335938 147.980469 201.019531 C 147.980469 201.019531 148.011719 200.996094 148.0625 200.9375 C 148.113281 200.878906 148.1875 200.792969 148.289062 200.679688 C 148.472656 200.449219 148.730469 200.089844 148.976562 199.589844 C 149.21875 199.09375 149.449219 198.460938 149.609375 197.71875 C 149.777344 196.980469 149.878906 196.132812 149.953125 195.234375 C 150.03125 194.335938 150.097656 193.378906 150.292969 192.429688 C 150.390625 191.957031 150.515625 191.484375 150.703125 191.042969 C 150.886719 190.597656 151.125 190.191406 151.425781 189.808594 C 152.035156 189.03125 152.910156 188.347656 153.824219 187.527344 C 154.277344 187.113281 154.746094 186.65625 155.167969 186.101562 C 155.375 185.828125 155.574219 185.527344 155.742188 185.210938 C 155.917969 184.894531 156.046875 184.566406 156.171875 184.242188 C 156.394531 183.601562 156.539062 182.964844 156.652344 182.359375 C 156.792969 182.5625 156.9375 182.753906 157.089844 182.949219 C 157.414062 183.355469 157.753906 183.75 158.054688 184.15625 C 158.351562 184.558594 158.621094 184.976562 158.769531 185.417969 C 158.921875 185.855469 158.964844 186.3125 158.90625 186.800781 C 158.847656 187.289062 158.71875 187.785156 158.589844 188.277344 C 158.460938 188.769531 158.335938 189.269531 158.289062 189.757812 C 158.28125 189.820312 158.277344 189.882812 158.269531 189.941406 C 158.269531 190.003906 158.265625 190.066406 158.265625 190.125 C 158.257812 190.25 158.265625 190.371094 158.273438 190.488281 C 158.277344 190.605469 158.296875 190.722656 158.316406 190.835938 C 158.332031 190.949219 158.363281 191.058594 158.390625 191.164062 C 158.511719 191.582031 158.675781 191.921875 158.804688 192.222656 C 158.933594 192.523438 159.03125 192.78125 159.085938 193 C 159.144531 193.214844 159.15625 193.390625 159.15625 193.507812 C 159.15625 193.566406 159.15625 193.609375 159.15625 193.640625 C 159.152344 193.671875 159.148438 193.6875 159.148438 193.6875 C 159.128906 193.855469 159.363281 193.929688 159.40625 193.726562 C 159.40625 193.726562 159.410156 193.707031 159.417969 193.671875 C 159.421875 193.636719 159.429688 193.585938 159.4375 193.519531 C 159.445312 193.382812 159.449219 193.179688 159.40625 192.933594 C 159.367188 192.6875 159.285156 192.398438 159.179688 192.082031 C 159.074219 191.765625 158.949219 191.417969 158.875 191.046875 C 158.804688 190.679688 158.808594 190.273438 158.894531 189.847656 C 158.972656 189.417969 159.125 188.96875 159.296875 188.492188 C 159.464844 188.015625 159.652344 187.507812 159.769531 186.941406 C 159.796875 186.800781 159.820312 186.652344 159.839844 186.503906 C 159.847656 186.355469 159.871094 186.207031 159.863281 186.050781 L 159.855469 185.816406 L 159.828125 185.585938 C 159.816406 185.429688 159.777344 185.28125 159.742188 185.128906 C 159.59375 184.523438 159.304688 183.992188 159.015625 183.511719 C 158.71875 183.03125 158.410156 182.601562 158.136719 182.1875 C 157.707031 181.535156 157.324219 180.828125 157.234375 180.035156 C 157.140625 179.207031 157.558594 178.441406 157.957031 177.738281 C 158.429688 176.898438 159.027344 176.164062 159.671875 175.5625 C 160.316406 174.953125 161.007812 174.472656 161.679688 174.105469 C 162.335938 173.746094 163.085938 173.546875 163.839844 173.554688 C 164.640625 173.558594 165.328125 173.894531 166.101562 174.046875 C 166.945312 174.214844 167.796875 174.332031 168.65625 174.367188 C 169.199219 174.386719 169.742188 174.378906 170.289062 174.332031 C 170.300781 174.332031 170.316406 174.328125 170.328125 174.328125 C 170.144531 174.578125 169.960938 174.84375 169.785156 175.136719 C 169.546875 175.53125 169.324219 175.976562 169.152344 176.476562 C 168.980469 176.976562 168.863281 177.53125 168.851562 178.113281 C 168.84375 178.695312 168.933594 179.21875 169.019531 179.679688 C 169.160156 180.398438 169.265625 181.160156 169.089844 181.878906 C 168.890625 182.691406 168.285156 183.277344 167.707031 183.84375 C 167.378906 184.164062 167.019531 184.480469 166.648438 184.835938 C 166.285156 185.191406 165.925781 185.570312 165.597656 185.988281 C 165.273438 186.410156 164.980469 186.882812 164.777344 187.402344 C 164.574219 187.925781 164.484375 188.511719 164.527344 189.054688 C 164.566406 189.589844 164.691406 190.046875 164.777344 190.457031 C 164.824219 190.664062 164.859375 190.855469 164.882812 191.039062 C 164.90625 191.222656 164.910156 191.390625 164.894531 191.546875 C 164.890625 191.628906 164.871094 191.699219 164.859375 191.773438 C 164.835938 191.839844 164.820312 191.914062 164.789062 191.980469 C 164.730469 192.113281 164.640625 192.25 164.535156 192.390625 C 164.429688 192.527344 164.308594 192.667969 164.183594 192.816406 C 164.054688 192.960938 163.929688 193.121094 163.8125 193.269531 C 163.351562 193.890625 163.023438 194.511719 162.789062 195.082031 C 162.554688 195.65625 162.417969 196.179688 162.332031 196.609375 C 162.289062 196.824219 162.261719 197.019531 162.238281 197.1875 C 162.222656 197.359375 162.203125 197.5 162.199219 197.617188 C 162.195312 197.734375 162.1875 197.828125 162.1875 197.886719 C 162.183594 197.945312 162.183594 197.976562 162.183594 197.976562 C 162.183594 198.332031 162.621094 198.332031 162.652344 198.007812 C 162.652344 198.007812 162.65625 197.976562 162.660156 197.921875 C 162.667969 197.867188 162.679688 197.78125 162.695312 197.671875 C 162.707031 197.5625 162.738281 197.429688 162.765625 197.273438 C 162.804688 197.121094 162.839844 196.941406 162.898438 196.742188 C 163.011719 196.351562 163.183594 195.886719 163.441406 195.382812 C 163.699219 194.882812 164.046875 194.34375 164.503906 193.832031 C 164.621094 193.707031 164.734375 193.582031 164.867188 193.453125 C 165 193.324219 165.144531 193.1875 165.292969 193.027344 C 165.441406 192.863281 165.589844 192.679688 165.714844 192.453125 C 165.78125 192.339844 165.828125 192.214844 165.878906 192.09375 C 165.914062 191.96875 165.957031 191.84375 165.976562 191.714844 C 166.027344 191.457031 166.039062 191.203125 166.03125 190.960938 C 166.023438 190.714844 165.996094 190.480469 165.96875 190.253906 C 165.910156 189.804688 165.839844 189.382812 165.847656 189.007812 C 165.859375 188.644531 165.941406 188.304688 166.105469 187.964844 C 166.277344 187.628906 166.511719 187.304688 166.800781 186.992188 C 167.089844 186.683594 167.417969 186.386719 167.773438 186.101562 C 168.128906 185.816406 168.523438 185.523438 168.917969 185.199219 C 169.3125 184.875 169.710938 184.523438 170.082031 184.113281 C 170.199219 183.980469 170.316406 183.839844 170.425781 183.695312 C 170.996094 184.464844 171.742188 185.144531 171.820312 186.15625 C 171.902344 187.242188 171.199219 188.285156 171.351562 189.359375 C 171.4375 189.996094 171.816406 190.566406 171.890625 191.203125 C 171.960938 191.816406 171.738281 192.429688 171.472656 192.984375 C 171.433594 193.070312 171.417969 193.207031 171.511719 193.21875 C 171.566406 193.222656 171.609375 193.171875 171.636719 193.121094 C 172.03125 192.457031 172.367188 191.707031 172.269531 190.941406 C 172.210938 190.492188 172.003906 190.070312 171.941406 189.621094 C 171.769531 188.371094 172.722656 187.195312 172.679688 185.929688 C 172.65625 185.308594 172.394531 184.726562 172.074219 184.207031 C 171.855469 183.851562 171.5625 183.546875 171.363281 183.179688 C 171.246094 182.96875 171.125 182.691406 171.144531 182.445312 C 171.160156 182.210938 171.296875 181.980469 171.355469 181.75 C 171.421875 181.472656 171.421875 181.136719 171.425781 180.851562 C 171.425781 180.277344 171.355469 179.773438 171.3125 179.339844 C 171.265625 178.902344 171.246094 178.535156 171.28125 178.242188 C 171.316406 177.945312 171.402344 177.664062 171.527344 177.386719 C 171.777344 176.828125 172.191406 176.304688 172.628906 175.839844 C 172.738281 175.722656 172.847656 175.609375 172.960938 175.496094 C 173 175.457031 173.042969 175.417969 173.082031 175.378906 C 173.402344 176.476562 173.8125 177.578125 174.324219 178.667969 C 174.410156 178.839844 174.492188 179.007812 174.578125 179.175781 L 174.707031 179.433594 L 174.84375 179.683594 C 174.933594 179.851562 175.027344 180.019531 175.121094 180.1875 C 175.21875 180.347656 175.3125 180.507812 175.410156 180.667969 C 175.507812 180.828125 175.605469 180.992188 175.703125 181.144531 C 175.804688 181.296875 175.902344 181.449219 176.003906 181.601562 L 176.15625 181.832031 L 176.308594 182.050781 C 176.410156 182.195312 176.511719 182.34375 176.613281 182.488281 C 177.160156 183.261719 177.929688 184.027344 178.328125 184.886719 C 178.96875 186.257812 178.769531 188.046875 178.167969 189.390625 C 178.070312 189.601562 177.949219 189.796875 177.8125 190.003906 L 177.710938 190.160156 L 177.589844 190.3125 L 177.46875 190.46875 C 177.429688 190.519531 177.390625 190.574219 177.339844 190.625 C 177.246094 190.730469 177.152344 190.832031 177.058594 190.9375 C 176.957031 191.042969 176.851562 191.148438 176.746094 191.253906 C 176.644531 191.363281 176.519531 191.46875 176.40625 191.574219 L 176.234375 191.738281 L 176.046875 191.898438 C 175.554688 192.335938 175.003906 192.78125 174.433594 193.273438 C 173.859375 193.769531 173.261719 194.3125 172.695312 194.949219 C 172.554688 195.105469 172.417969 195.273438 172.28125 195.445312 C 171.585938 195.832031 170.507812 196.4375 169.179688 197.179688 C 168.582031 197.511719 167.9375 197.871094 167.253906 198.253906 C 166.894531 198.457031 166.46875 198.699219 166.042969 199.082031 C 165.9375 199.175781 165.835938 199.285156 165.734375 199.394531 C 165.632812 199.511719 165.546875 199.636719 165.457031 199.761719 C 165.292969 200.011719 165.160156 200.28125 165.066406 200.539062 C 164.867188 201.0625 164.792969 201.546875 164.714844 201.984375 C 164.644531 202.417969 164.582031 202.8125 164.480469 203.136719 C 164.433594 203.304688 164.367188 203.4375 164.300781 203.578125 C 164.21875 203.71875 164.132812 203.855469 164.019531 203.980469 C 163.800781 204.242188 163.507812 204.476562 163.179688 204.691406 C 162.851562 204.90625 162.476562 205.089844 162.085938 205.257812 C 161.890625 205.347656 161.695312 205.425781 161.488281 205.507812 C 161.277344 205.589844 161.066406 205.671875 160.859375 205.753906 C 160.015625 206.097656 159.128906 206.480469 158.382812 207.105469 C 158.195312 207.257812 158.023438 207.433594 157.863281 207.613281 C 157.707031 207.796875 157.558594 207.988281 157.4375 208.1875 C 157.195312 208.578125 157.027344 208.976562 156.878906 209.34375 C 156.730469 209.714844 156.601562 210.0625 156.460938 210.378906 C 156.320312 210.695312 156.160156 210.992188 155.996094 211.273438 C 155.660156 211.828125 155.292969 212.304688 154.933594 212.691406 C 154.570312 213.082031 154.21875 213.390625 153.917969 213.628906 C 153.609375 213.863281 153.363281 214.035156 153.183594 214.144531 C 153.011719 214.253906 152.914062 214.304688 152.914062 214.304688 C 152.644531 214.457031 152.816406 214.828125 153.113281 214.691406 C 153.113281 214.691406 153.222656 214.648438 153.414062 214.546875 C 153.609375 214.449219 153.890625 214.292969 154.234375 214.070312 C 154.574219 213.847656 154.976562 213.550781 155.402344 213.167969 C 155.828125 212.78125 156.269531 212.304688 156.691406 211.730469 C 156.894531 211.441406 157.097656 211.128906 157.285156 210.789062 C 157.472656 210.453125 157.636719 210.101562 157.808594 209.765625 C 157.980469 209.425781 158.160156 209.097656 158.375 208.8125 C 158.585938 208.53125 158.835938 208.289062 159.140625 208.082031 C 159.738281 207.660156 160.511719 207.386719 161.34375 207.132812 C 161.558594 207.070312 161.769531 207.007812 161.984375 206.945312 C 162.203125 206.878906 162.429688 206.808594 162.65625 206.730469 C 163.109375 206.578125 163.566406 206.402344 164.023438 206.160156 C 164.476562 205.921875 164.933594 205.628906 165.335938 205.234375 C 165.539062 205.039062 165.722656 204.8125 165.886719 204.574219 C 166.046875 204.332031 166.191406 204.066406 166.292969 203.816406 C 166.503906 203.304688 166.613281 202.824219 166.722656 202.40625 C 166.828125 201.992188 166.933594 201.625 167.0625 201.363281 C 167.125 201.230469 167.199219 201.125 167.269531 201.035156 C 167.308594 200.996094 167.34375 200.953125 167.382812 200.917969 C 167.425781 200.878906 167.46875 200.84375 167.519531 200.804688 C 167.71875 200.65625 168.003906 200.515625 168.335938 200.363281 C 169.042969 200.046875 169.714844 199.746094 170.332031 199.46875 C 170.441406 199.417969 170.546875 199.371094 170.652344 199.324219 C 170.628906 199.492188 170.613281 199.660156 170.597656 199.824219 C 170.53125 200.683594 170.566406 201.5 170.628906 202.265625 C 170.691406 203.035156 170.773438 203.761719 170.824219 204.460938 C 170.871094 205.15625 170.894531 205.824219 170.832031 206.445312 C 170.769531 207.070312 170.632812 207.640625 170.402344 208.195312 L 170.308594 208.398438 C 170.277344 208.46875 170.25 208.539062 170.210938 208.601562 C 170.140625 208.738281 170.066406 208.871094 169.992188 209.003906 C 169.910156 209.136719 169.828125 209.265625 169.746094 209.394531 C 169.660156 209.523438 169.566406 209.652344 169.476562 209.777344 C 169.105469 210.28125 168.695312 210.765625 168.277344 211.238281 C 167.855469 211.714844 167.429688 212.179688 167.027344 212.648438 C 166.925781 212.765625 166.828125 212.882812 166.730469 213.003906 C 166.628906 213.117188 166.535156 213.238281 166.441406 213.359375 C 166.347656 213.476562 166.253906 213.59375 166.164062 213.714844 C 166.074219 213.839844 165.988281 213.960938 165.902344 214.082031 C 165.816406 214.199219 165.738281 214.324219 165.660156 214.449219 C 165.582031 214.574219 165.5 214.691406 165.433594 214.816406 C 165.296875 215.074219 165.152344 215.3125 165.042969 215.566406 C 164.8125 216.066406 164.648438 216.554688 164.519531 217.015625 C 164.261719 217.9375 164.160156 218.746094 164.085938 219.410156 C 164.019531 220.074219 163.992188 220.589844 163.972656 220.941406 C 163.957031 221.292969 163.945312 221.480469 163.945312 221.480469 C 163.925781 222.003906 164.59375 222.0625 164.664062 221.542969 C 164.664062 221.542969 164.6875 221.359375 164.734375 221.015625 C 164.78125 220.671875 164.855469 220.167969 164.972656 219.539062 C 165.226562 218.296875 165.628906 216.492188 166.996094 214.902344 C 167.082031 214.804688 167.167969 214.703125 167.257812 214.601562 C 167.34375 214.5 167.441406 214.398438 167.535156 214.296875 C 167.628906 214.191406 167.726562 214.09375 167.828125 213.992188 C 167.929688 213.890625 168.035156 213.785156 168.136719 213.683594 C 168.558594 213.273438 169.015625 212.851562 169.484375 212.40625 C 169.957031 211.960938 170.445312 211.480469 170.921875 210.9375 C 171.039062 210.800781 171.160156 210.664062 171.277344 210.519531 C 171.390625 210.371094 171.503906 210.222656 171.617188 210.074219 C 171.722656 209.910156 171.832031 209.753906 171.9375 209.589844 C 171.992188 209.511719 172.039062 209.421875 172.089844 209.335938 L 172.234375 209.078125 C 172.515625 208.546875 172.738281 207.960938 172.894531 207.363281 C 173.117188 207.710938 173.363281 208.039062 173.613281 208.339844 C 174.074219 208.898438 174.53125 209.40625 174.863281 209.941406 C 175.03125 210.207031 175.164062 210.476562 175.25 210.75 C 175.335938 211.023438 175.375 211.304688 175.367188 211.605469 C 175.355469 212.199219 175.164062 212.839844 174.980469 213.484375 C 174.890625 213.804688 174.800781 214.132812 174.730469 214.46875 C 174.660156 214.800781 174.621094 215.136719 174.59375 215.457031 C 174.554688 216.105469 174.605469 216.707031 174.6875 217.253906 C 174.855469 218.339844 175.132812 219.199219 175.320312 219.796875 C 175.511719 220.394531 175.632812 220.730469 175.632812 220.730469 C 175.710938 220.964844 176.019531 220.875 175.960938 220.632812 C 175.960938 220.632812 175.871094 220.289062 175.730469 219.683594 C 175.597656 219.082031 175.402344 218.21875 175.335938 217.183594 C 175.304688 216.667969 175.308594 216.109375 175.394531 215.539062 C 175.441406 215.257812 175.5 214.96875 175.585938 214.683594 C 175.675781 214.394531 175.785156 214.097656 175.902344 213.785156 C 176.136719 213.167969 176.417969 212.496094 176.511719 211.6875 C 176.5625 211.289062 176.542969 210.855469 176.453125 210.445312 C 176.363281 210.035156 176.210938 209.644531 176.03125 209.292969 C 175.667969 208.582031 175.210938 207.988281 174.832031 207.429688 C 174.441406 206.867188 174.15625 206.347656 173.945312 205.785156 C 173.515625 204.671875 173.402344 203.515625 173.367188 202.511719 C 173.335938 201.507812 173.390625 200.644531 173.429688 200.035156 C 173.433594 199.957031 173.4375 199.886719 173.441406 199.820312 C 173.683594 198.730469 174.179688 197.910156 175.007812 197.136719 C 175.457031 196.714844 175.976562 196.316406 176.53125 195.914062 C 177.085938 195.515625 177.679688 195.113281 178.277344 194.671875 L 178.5 194.507812 L 178.726562 194.335938 C 178.875 194.214844 179.023438 194.109375 179.171875 193.980469 C 179.320312 193.851562 179.46875 193.730469 179.617188 193.605469 C 179.761719 193.46875 179.90625 193.332031 180.050781 193.199219 C 180.125 193.132812 180.191406 193.0625 180.261719 192.984375 C 180.332031 192.910156 180.402344 192.835938 180.472656 192.761719 C 180.539062 192.6875 180.609375 192.613281 180.675781 192.539062 C 180.742188 192.460938 180.804688 192.378906 180.871094 192.300781 C 181.128906 191.980469 181.378906 191.644531 181.585938 191.289062 C 181.585938 191.285156 181.589844 191.28125 181.589844 191.28125 C 181.597656 191.367188 181.605469 191.453125 181.609375 191.542969 C 181.667969 192.550781 181.507812 193.691406 181.183594 194.917969 C 180.867188 196.148438 180.398438 197.457031 179.914062 198.839844 C 179.429688 200.222656 178.925781 201.691406 178.5625 203.277344 C 178.382812 204.074219 178.242188 204.898438 178.167969 205.742188 C 178.09375 206.589844 178.09375 207.445312 178.160156 208.269531 C 178.222656 209.097656 178.34375 209.90625 178.507812 210.679688 C 178.679688 211.453125 178.886719 212.199219 179.117188 212.921875 C 179.347656 213.640625 179.605469 214.332031 179.871094 215.003906 C 180.136719 215.671875 180.410156 216.324219 180.6875 216.957031 C 181.234375 218.222656 181.78125 219.421875 182.261719 220.59375 C 182.742188 221.761719 183.164062 222.894531 183.472656 224.003906 C 183.625 224.558594 183.757812 225.105469 183.847656 225.644531 C 183.875 225.78125 183.898438 225.917969 183.917969 226.050781 C 183.933594 226.183594 183.953125 226.316406 183.972656 226.453125 C 184 226.71875 184.03125 226.984375 184.042969 227.25 C 184.074219 227.671875 184.082031 228.09375 184.078125 228.511719 C 184.050781 228.570312 184.019531 228.625 183.980469 228.6875 C 183.792969 228.996094 183.503906 229.351562 183.113281 229.695312 C 183.019531 229.785156 182.914062 229.867188 182.808594 229.953125 C 182.753906 229.992188 182.699219 230.035156 182.644531 230.074219 C 182.582031 230.121094 182.519531 230.164062 182.453125 230.207031 C 182.195312 230.386719 181.914062 230.570312 181.617188 230.765625 C 181.015625 231.15625 180.328125 231.59375 179.671875 232.214844 C 179.34375 232.527344 179.027344 232.890625 178.765625 233.304688 C 178.5 233.722656 178.308594 234.183594 178.175781 234.628906 C 177.910156 235.527344 177.84375 236.386719 177.71875 237.160156 C 177.65625 237.550781 177.585938 237.921875 177.476562 238.261719 C 177.371094 238.601562 177.226562 238.9375 177.046875 239.261719 C 176.691406 239.90625 176.214844 240.5 175.703125 241.042969 C 175.191406 241.589844 174.625 242.117188 174.15625 242.707031 C 173.917969 243.003906 173.703125 243.3125 173.535156 243.640625 C 173.363281 243.96875 173.238281 244.3125 173.171875 244.648438 C 173.101562 244.984375 173.078125 245.304688 173.074219 245.601562 C 173.070312 245.894531 173.082031 246.171875 173.09375 246.421875 C 173.121094 246.925781 173.136719 247.351562 173.109375 247.695312 C 173.089844 248.039062 173.023438 248.292969 172.972656 248.464844 C 172.941406 248.546875 172.917969 248.609375 172.902344 248.65625 C 172.882812 248.699219 172.871094 248.71875 172.871094 248.71875 C 172.757812 248.949219 173.058594 249.175781 173.226562 248.902344 C 173.226562 248.902344 173.242188 248.878906 173.265625 248.828125 C 173.289062 248.78125 173.324219 248.707031 173.367188 248.613281 C 173.445312 248.421875 173.550781 248.128906 173.605469 247.753906 C 173.667969 247.375 173.6875 246.921875 173.707031 246.421875 C 173.714844 246.171875 173.726562 245.90625 173.753906 245.640625 C 173.78125 245.371094 173.824219 245.097656 173.90625 244.832031 C 174.058594 244.304688 174.394531 243.796875 174.859375 243.320312 C 175.320312 242.835938 175.894531 242.382812 176.492188 241.847656 C 177.089844 241.3125 177.683594 240.699219 178.183594 239.960938 C 178.433594 239.589844 178.652344 239.1875 178.832031 238.757812 C 179.007812 238.328125 179.132812 237.890625 179.238281 237.472656 C 179.445312 236.632812 179.585938 235.839844 179.847656 235.195312 C 179.976562 234.875 180.125 234.597656 180.3125 234.355469 C 180.5 234.113281 180.722656 233.894531 180.976562 233.691406 C 181.484375 233.289062 182.097656 232.957031 182.71875 232.628906 C 183.03125 232.460938 183.34375 232.296875 183.652344 232.117188 C 183.691406 232.097656 183.726562 232.078125 183.765625 232.054688 C 183.550781 233.507812 183.277344 234.882812 183.046875 236.15625 C 182.722656 237.902344 182.484375 239.464844 182.378906 240.773438 C 182.324219 241.425781 182.308594 242.011719 182.300781 242.523438 C 182.304688 242.78125 182.304688 243.019531 182.3125 243.234375 C 182.324219 243.453125 182.332031 243.648438 182.34375 243.828125 C 182.375 244.179688 182.390625 244.453125 182.417969 244.632812 C 182.441406 244.816406 182.453125 244.910156 182.453125 244.910156 C 182.484375 245.171875 182.605469 245.359375 182.75 245.472656 C 182.894531 245.585938 183.066406 245.625 183.234375 245.597656 C 183.570312 245.546875 183.867188 245.257812 183.84375 244.78125 C 183.84375 244.78125 183.839844 244.695312 183.832031 244.527344 C 183.820312 244.363281 183.828125 244.113281 183.828125 243.789062 C 183.832031 243.625 183.839844 243.445312 183.847656 243.246094 C 183.859375 243.046875 183.875 242.832031 183.894531 242.597656 C 183.941406 242.125 184.003906 241.585938 184.109375 240.984375 C 184.3125 239.773438 184.660156 238.320312 185.132812 236.632812 C 185.589844 234.941406 186.175781 233.015625 186.601562 230.785156 C 186.804688 229.667969 186.96875 228.472656 186.996094 227.199219 C 187.007812 226.882812 186.996094 226.558594 186.992188 226.234375 C 186.984375 226.070312 186.976562 225.90625 186.96875 225.742188 C 186.960938 225.578125 186.949219 225.414062 186.929688 225.25 C 186.878906 224.589844 186.777344 223.9375 186.65625 223.277344 C 186.570312 222.796875 186.464844 222.324219 186.347656 221.847656 C 186.421875 221.90625 186.496094 221.960938 186.574219 222.015625 C 186.746094 222.132812 186.917969 222.246094 187.085938 222.351562 C 187.761719 222.777344 188.421875 223.144531 188.933594 223.585938 C 189.195312 223.804688 189.40625 224.039062 189.574219 224.300781 C 189.734375 224.558594 189.851562 224.851562 189.9375 225.1875 C 190.109375 225.855469 190.152344 226.625 190.34375 227.40625 C 190.4375 227.796875 190.578125 228.191406 190.789062 228.550781 C 190.996094 228.910156 191.265625 229.203125 191.53125 229.449219 C 192.070312 229.941406 192.601562 230.28125 193.019531 230.652344 C 193.871094 231.386719 194.402344 232.191406 194.710938 232.777344 C 194.867188 233.070312 194.96875 233.3125 195.035156 233.480469 C 195.070312 233.5625 195.09375 233.625 195.109375 233.667969 C 195.125 233.710938 195.132812 233.734375 195.132812 233.734375 C 195.222656 233.988281 195.566406 233.898438 195.496094 233.625 C 195.496094 233.625 195.488281 233.601562 195.476562 233.554688 C 195.464844 233.507812 195.441406 233.4375 195.417969 233.347656 C 195.359375 233.167969 195.277344 232.902344 195.136719 232.578125 C 194.863281 231.929688 194.378906 231.019531 193.515625 230.128906 C 193.089844 229.683594 192.574219 229.285156 192.15625 228.828125 C 191.949219 228.597656 191.769531 228.355469 191.648438 228.089844 C 191.523438 227.824219 191.441406 227.519531 191.390625 227.191406 C 191.285156 226.53125 191.3125 225.777344 191.175781 224.933594 C 191.109375 224.511719 190.984375 224.058594 190.765625 223.632812 C 190.550781 223.210938 190.261719 222.835938 189.945312 222.519531 C 189.316406 221.882812 188.628906 221.429688 188.039062 220.976562 C 187.890625 220.867188 187.746094 220.753906 187.617188 220.644531 C 187.480469 220.53125 187.359375 220.414062 187.234375 220.296875 C 186.988281 220.0625 186.757812 219.816406 186.546875 219.558594 C 186.125 219.046875 185.773438 218.496094 185.46875 217.949219 C 185.164062 217.40625 184.917969 216.859375 184.707031 216.347656 C 184.496094 215.835938 184.320312 215.355469 184.167969 214.921875 C 184.03125 214.496094 183.894531 214.074219 183.769531 213.652344 C 183.582031 213.019531 183.410156 212.390625 183.269531 211.769531 C 183.128906 211.144531 183.015625 210.523438 182.933594 209.90625 C 182.859375 209.292969 182.824219 208.6875 182.832031 208.09375 C 182.839844 207.496094 182.890625 206.917969 182.996094 206.34375 C 183.097656 205.765625 183.253906 205.179688 183.445312 204.582031 C 183.828125 203.382812 184.371094 202.148438 184.957031 200.847656 C 185.542969 199.542969 186.183594 198.171875 186.726562 196.652344 C 186.835938 196.351562 186.9375 196.042969 187.03125 195.730469 C 187.3125 195.929688 187.617188 196.09375 187.925781 196.269531 C 188.082031 196.351562 188.238281 196.425781 188.398438 196.503906 C 188.558594 196.578125 188.714844 196.640625 188.875 196.710938 C 190.136719 197.234375 191.382812 197.546875 192.433594 197.972656 C 192.960938 198.1875 193.433594 198.425781 193.832031 198.710938 C 193.9375 198.777344 194.019531 198.863281 194.117188 198.9375 C 194.210938 199.015625 194.289062 199.105469 194.382812 199.1875 C 194.542969 199.371094 194.707031 199.558594 194.84375 199.785156 C 195.015625 200.042969 195.167969 200.339844 195.300781 200.660156 C 195.328125 200.746094 195.359375 200.839844 195.390625 200.941406 C 195.480469 201.230469 195.589844 201.582031 195.695312 201.988281 C 195.804688 202.390625 195.902344 202.839844 195.972656 203.328125 C 196.113281 204.296875 196.121094 205.421875 195.628906 206.429688 C 195.402344 206.929688 194.984375 207.421875 194.519531 207.996094 C 194.289062 208.285156 194.046875 208.597656 193.828125 208.945312 C 193.605469 209.289062 193.414062 209.691406 193.289062 210.097656 C 193.039062 210.910156 193.015625 211.777344 193.207031 212.578125 C 193.308594 212.980469 193.464844 213.363281 193.632812 213.691406 C 193.800781 214.023438 193.972656 214.324219 194.125 214.613281 C 194.429688 215.195312 194.613281 215.71875 194.554688 216.25 C 194.511719 216.789062 194.289062 217.324219 194.09375 217.828125 C 193.992188 218.082031 193.890625 218.332031 193.808594 218.578125 C 193.722656 218.828125 193.660156 219.078125 193.625 219.3125 C 193.550781 219.78125 193.570312 220.203125 193.65625 220.546875 C 193.734375 220.890625 193.878906 221.140625 194 221.289062 C 194.058594 221.367188 194.113281 221.417969 194.148438 221.453125 C 194.183594 221.484375 194.203125 221.503906 194.203125 221.503906 C 194.4375 221.6875 194.597656 221.398438 194.445312 221.253906 C 194.445312 221.253906 194.429688 221.238281 194.40625 221.207031 C 194.382812 221.175781 194.34375 221.136719 194.304688 221.070312 C 194.222656 220.949219 194.125 220.746094 194.085938 220.460938 C 194.039062 220.179688 194.054688 219.816406 194.152344 219.414062 C 194.203125 219.214844 194.273438 219.007812 194.367188 218.792969 C 194.464844 218.578125 194.578125 218.347656 194.703125 218.101562 C 194.824219 217.859375 194.957031 217.597656 195.078125 217.3125 C 195.199219 217.027344 195.308594 216.710938 195.371094 216.359375 C 195.402344 216.183594 195.414062 216 195.417969 215.808594 C 195.410156 215.625 195.394531 215.433594 195.359375 215.25 C 195.289062 214.875 195.164062 214.527344 195.027344 214.199219 C 194.75 213.539062 194.445312 212.9375 194.363281 212.347656 C 194.273438 211.742188 194.351562 211.105469 194.578125 210.546875 C 194.695312 210.265625 194.84375 210.015625 195.035156 209.765625 C 195.226562 209.515625 195.449219 209.269531 195.691406 209.019531 C 195.929688 208.769531 196.1875 208.507812 196.441406 208.222656 C 196.5625 208.085938 196.683594 207.941406 196.800781 207.789062 C 196.964844 208.363281 197.164062 208.941406 197.429688 209.496094 C 197.761719 210.183594 198.199219 210.839844 198.726562 211.386719 C 199.25 211.933594 199.832031 212.363281 200.402344 212.71875 C 200.972656 213.078125 201.539062 213.371094 202.070312 213.652344 C 203.140625 214.203125 204.101562 214.699219 204.835938 215.3125 C 205.207031 215.617188 205.523438 215.949219 205.796875 216.289062 C 206.070312 216.632812 206.289062 216.992188 206.476562 217.339844 C 206.839844 218.042969 207.046875 218.714844 207.15625 219.277344 C 207.265625 219.84375 207.273438 220.300781 207.273438 220.609375 C 207.269531 220.765625 207.265625 220.886719 207.261719 220.964844 C 207.261719 221.003906 207.257812 221.035156 207.253906 221.054688 C 207.253906 221.074219 207.25 221.085938 207.25 221.085938 C 207.203125 221.539062 207.820312 221.683594 207.917969 221.171875 C 207.917969 221.171875 207.921875 221.160156 207.921875 221.140625 C 207.929688 221.117188 207.9375 221.082031 207.941406 221.039062 C 207.953125 220.953125 207.96875 220.820312 207.988281 220.648438 C 208.015625 220.308594 208.050781 219.804688 207.984375 219.160156 C 207.921875 218.519531 207.757812 217.746094 207.414062 216.90625 C 207.234375 216.488281 207.015625 216.054688 206.730469 215.621094 C 206.445312 215.195312 206.101562 214.765625 205.695312 214.367188 C 204.882812 213.566406 203.863281 212.929688 202.859375 212.289062 C 201.851562 211.652344 200.835938 210.996094 200.148438 210.128906 C 199.804688 209.699219 199.539062 209.210938 199.332031 208.671875 C 199.128906 208.128906 198.992188 207.535156 198.894531 206.914062 C 198.699219 205.660156 198.675781 204.296875 198.554688 202.855469 C 198.492188 202.132812 198.410156 201.386719 198.242188 200.617188 C 198.078125 199.855469 197.828125 199.066406 197.429688 198.308594 C 197.234375 197.929688 196.988281 197.566406 196.730469 197.222656 C 196.589844 197.054688 196.453125 196.882812 196.300781 196.730469 C 196.148438 196.578125 195.996094 196.414062 195.832031 196.277344 C 195.1875 195.714844 194.492188 195.296875 193.832031 194.960938 C 193.171875 194.621094 192.542969 194.359375 191.964844 194.117188 C 191.390625 193.867188 190.863281 193.636719 190.410156 193.398438 C 188.96875 192.640625 187.890625 191.515625 187.753906 189.855469 C 187.742188 189.738281 187.726562 189.621094 187.710938 189.507812 C 187.679688 189.277344 187.648438 189.046875 187.617188 188.816406 C 187.578125 188.585938 187.523438 188.367188 187.476562 188.140625 C 187.425781 187.917969 187.382812 187.691406 187.316406 187.480469 C 187.25 187.265625 187.1875 187.050781 187.125 186.835938 L 187.074219 186.675781 L 187.019531 186.523438 L 186.90625 186.21875 C 186.617188 185.394531 186.257812 184.65625 185.898438 183.933594 C 185.535156 183.238281 185.15625 182.5625 184.785156 181.945312 C 184.039062 180.699219 183.304688 179.578125 182.707031 178.542969 C 182.632812 178.417969 182.558594 178.289062 182.484375 178.164062 L 182.375 177.972656 L 182.277344 177.785156 C 182.210938 177.664062 182.144531 177.539062 182.078125 177.417969 C 182.011719 177.292969 181.960938 177.175781 181.898438 177.058594 C 181.839844 176.9375 181.78125 176.820312 181.722656 176.703125 C 181.675781 176.589844 181.625 176.476562 181.578125 176.359375 L 181.5 176.191406 L 181.4375 176.019531 C 181.390625 175.90625 181.34375 175.789062 181.300781 175.675781 C 181.113281 175.15625 180.960938 174.636719 180.832031 174.113281 C 181.027344 174.230469 181.226562 174.34375 181.414062 174.4375 C 182.363281 174.941406 183.394531 175.34375 184.46875 175.628906 C 185.539062 175.914062 186.652344 176.082031 187.773438 176.152344 C 188.542969 176.203125 189.316406 176.199219 190.089844 176.160156 C 190.113281 176.164062 190.136719 176.167969 190.160156 176.171875 C 190.445312 176.214844 190.863281 176.277344 191.394531 176.371094 C 192.453125 176.566406 193.960938 176.886719 195.734375 177.445312 C 196.175781 177.585938 196.632812 177.738281 197.105469 177.910156 C 197.464844 178.039062 197.859375 178.125 198.207031 178.300781 C 198.789062 178.605469 199.292969 179.550781 199.242188 180.207031 C 199.238281 180.257812 199.234375 180.3125 199.230469 180.371094 C 199.199219 180.675781 199.117188 181.125 198.855469 181.609375 C 198.730469 181.851562 198.5625 182.105469 198.351562 182.339844 C 198.144531 182.582031 197.894531 182.808594 197.601562 183 C 197.304688 183.1875 196.980469 183.332031 196.617188 183.425781 C 196.25 183.523438 195.839844 183.574219 195.417969 183.632812 C 194.992188 183.691406 194.542969 183.753906 194.109375 183.894531 C 193.679688 184.03125 193.257812 184.238281 192.921875 184.546875 C 192.757812 184.699219 192.613281 184.882812 192.503906 185.066406 C 192.394531 185.25 192.320312 185.429688 192.246094 185.59375 C 192.171875 185.757812 192.097656 185.90625 192.015625 186.039062 C 191.933594 186.171875 191.839844 186.292969 191.738281 186.402344 C 191.53125 186.621094 191.304688 186.800781 191.105469 186.964844 C 190.90625 187.128906 190.726562 187.273438 190.589844 187.40625 C 190.308594 187.667969 190.183594 187.855469 190.183594 187.855469 C 190.089844 187.980469 190.253906 188.085938 190.34375 187.980469 C 190.34375 187.980469 190.472656 187.824219 190.757812 187.597656 C 190.898438 187.488281 191.082031 187.359375 191.292969 187.214844 C 191.507812 187.070312 191.757812 186.90625 192.007812 186.679688 C 192.136719 186.566406 192.257812 186.433594 192.375 186.285156 C 192.488281 186.132812 192.582031 185.972656 192.671875 185.808594 C 192.761719 185.648438 192.851562 185.488281 192.949219 185.351562 C 193.046875 185.210938 193.160156 185.09375 193.296875 184.988281 C 193.570312 184.777344 193.917969 184.640625 194.292969 184.554688 C 194.667969 184.46875 195.066406 184.445312 195.488281 184.425781 C 195.910156 184.40625 196.351562 184.390625 196.804688 184.3125 C 196.941406 184.292969 197.074219 184.257812 197.210938 184.222656 C 197.015625 184.566406 196.820312 184.9375 196.6875 185.355469 C 196.609375 185.5625 196.566406 185.792969 196.519531 186.015625 C 196.5 186.128906 196.492188 186.242188 196.480469 186.355469 L 196.460938 186.527344 C 196.460938 186.582031 196.460938 186.640625 196.460938 186.699219 C 196.464844 186.8125 196.464844 186.925781 196.46875 187.035156 L 196.507812 187.371094 C 196.519531 187.480469 196.542969 187.585938 196.566406 187.691406 C 196.589844 187.796875 196.609375 187.90625 196.640625 188.007812 C 196.867188 188.832031 197.226562 189.542969 197.558594 190.207031 C 197.898438 190.875 198.210938 191.503906 198.417969 192.125 L 198.457031 192.242188 L 198.488281 192.355469 C 198.507812 192.433594 198.53125 192.511719 198.550781 192.585938 C 198.585938 192.742188 198.613281 192.898438 198.636719 193.058594 C 198.6875 193.378906 198.714844 193.703125 198.746094 194.03125 C 198.808594 194.679688 198.894531 195.34375 199.136719 195.921875 C 199.253906 196.214844 199.414062 196.476562 199.574219 196.695312 C 199.734375 196.921875 199.902344 197.109375 200.054688 197.285156 C 200.363281 197.636719 200.621094 197.925781 200.796875 198.183594 C 200.976562 198.4375 201.074219 198.65625 201.125 198.804688 C 201.148438 198.882812 201.160156 198.945312 201.171875 198.984375 C 201.183594 199.023438 201.183594 199.046875 201.183594 199.046875 C 201.214844 199.269531 201.558594 199.296875 201.542969 198.996094 C 201.542969 198.996094 201.546875 198.96875 201.535156 198.921875 C 201.527344 198.871094 201.519531 198.796875 201.496094 198.703125 C 201.453125 198.515625 201.355469 198.246094 201.183594 197.941406 C 201.011719 197.636719 200.761719 197.304688 200.492188 196.9375 C 200.222656 196.566406 199.933594 196.164062 199.785156 195.6875 C 199.632812 195.199219 199.601562 194.625 199.597656 193.984375 C 199.59375 193.664062 199.59375 193.324219 199.574219 192.964844 C 199.5625 192.785156 199.546875 192.597656 199.519531 192.410156 C 199.503906 192.316406 199.484375 192.222656 199.46875 192.128906 L 199.445312 191.988281 L 199.410156 191.851562 C 199.234375 191.109375 198.949219 190.394531 198.671875 189.710938 C 198.535156 189.363281 198.40625 189.023438 198.289062 188.6875 C 198.175781 188.351562 198.078125 188.015625 198.023438 187.695312 C 198.003906 187.613281 198 187.535156 197.988281 187.453125 C 197.980469 187.371094 197.964844 187.292969 197.96875 187.21875 L 197.960938 186.984375 L 197.976562 186.761719 C 197.980469 186.722656 197.980469 186.6875 197.984375 186.652344 L 198.007812 186.542969 C 198.023438 186.46875 198.03125 186.398438 198.050781 186.328125 C 198.101562 186.191406 198.132812 186.050781 198.199219 185.917969 C 198.429688 185.371094 198.851562 184.855469 199.292969 184.328125 C 199.734375 183.800781 200.21875 183.257812 200.625 182.621094 C 200.679688 182.546875 200.722656 182.457031 200.773438 182.375 C 200.773438 182.371094 200.777344 182.367188 200.777344 182.363281 C 200.828125 182.652344 200.878906 182.949219 200.925781 183.246094 C 201.140625 184.515625 201.375 185.878906 201.84375 187.234375 C 202.078125 187.914062 202.375 188.578125 202.746094 189.210938 C 202.925781 189.527344 203.136719 189.832031 203.359375 190.128906 C 203.582031 190.421875 203.832031 190.699219 204.09375 190.964844 C 204.363281 191.226562 204.648438 191.46875 204.953125 191.683594 C 205.261719 191.898438 205.585938 192.09375 205.902344 192.242188 C 206.535156 192.554688 207.148438 192.761719 207.703125 192.972656 C 207.980469 193.078125 208.242188 193.183594 208.492188 193.292969 C 208.613281 193.351562 208.742188 193.402344 208.851562 193.464844 L 209.019531 193.554688 L 209.179688 193.648438 C 209.238281 193.679688 209.285156 193.714844 209.332031 193.75 L 209.480469 193.851562 C 209.566406 193.929688 209.664062 193.992188 209.742188 194.078125 C 209.910156 194.226562 210.046875 194.402344 210.179688 194.597656 C 210.445312 194.992188 210.652344 195.464844 210.867188 195.945312 C 211.082031 196.421875 211.289062 196.886719 211.488281 197.332031 C 213.070312 200.894531 214.128906 203.269531 214.128906 203.269531 C 214.3125 203.683594 214.859375 203.46875 214.710938 203.042969 C 214.710938 203.042969 213.863281 200.582031 212.59375 196.898438 C 212.4375 196.4375 212.273438 195.957031 212.101562 195.460938 C 211.925781 194.964844 211.75 194.417969 211.441406 193.851562 C 211.285156 193.570312 211.097656 193.277344 210.863281 193.023438 C 210.753906 192.886719 210.621094 192.773438 210.5 192.648438 C 210.433594 192.59375 210.367188 192.539062 210.304688 192.480469 C 210.238281 192.425781 210.171875 192.375 210.101562 192.324219 L 209.894531 192.171875 L 209.683594 192.035156 C 209.542969 191.941406 209.402344 191.867188 209.257812 191.785156 C 208.96875 191.628906 208.679688 191.484375 208.402344 191.347656 C 207.835938 191.078125 207.292969 190.832031 206.824219 190.546875 C 206.582031 190.40625 206.378906 190.25 206.179688 190.089844 C 205.980469 189.917969 205.796875 189.726562 205.621094 189.527344 C 204.929688 188.714844 204.457031 187.648438 204.175781 186.527344 C 203.890625 185.394531 203.78125 184.167969 203.679688 182.90625 C 203.632812 182.273438 203.585938 181.636719 203.515625 180.976562 C 203.441406 180.308594 203.335938 179.59375 203.089844 178.855469 C 202.964844 178.484375 202.808594 178.109375 202.597656 177.746094 C 202.390625 177.382812 202.125 177.027344 201.828125 176.722656 C 201.238281 176.113281 200.597656 175.71875 200.03125 175.410156 C 199.746094 175.253906 199.476562 175.117188 199.222656 174.996094 C 198.964844 174.871094 198.710938 174.75 198.460938 174.636719 C 198.402344 174.609375 198.347656 174.582031 198.289062 174.558594 C 199.050781 174.375 199.796875 174.214844 200.519531 174.109375 C 201.449219 173.976562 202.347656 173.925781 203.179688 174.039062 C 203.386719 174.074219 203.601562 174.085938 203.796875 174.144531 L 204.101562 174.210938 C 204.203125 174.234375 204.300781 174.273438 204.402344 174.304688 C 204.5 174.339844 204.601562 174.359375 204.703125 174.40625 L 205.007812 174.527344 C 205.058594 174.550781 205.109375 174.566406 205.160156 174.589844 L 205.316406 174.664062 L 205.632812 174.8125 C 206.472656 175.242188 207.339844 175.820312 208.265625 176.433594 C 208.503906 176.589844 208.738281 176.746094 208.972656 176.902344 C 209.210938 177.058594 209.464844 177.214844 209.707031 177.371094 C 209.96875 177.523438 210.21875 177.679688 210.488281 177.824219 C 211.449219 178.339844 212.425781 178.820312 213.359375 179.382812 C 214.066406 179.800781 214.789062 180.097656 215.542969 180.417969 C 216.113281 180.65625 216.636719 180.914062 217.046875 181.277344 C 217.453125 181.636719 217.78125 182.132812 217.988281 182.695312 C 218.09375 182.976562 218.171875 183.269531 218.21875 183.570312 C 218.265625 183.871094 218.285156 184.191406 218.304688 184.53125 C 218.320312 184.867188 218.335938 185.222656 218.390625 185.585938 C 218.4375 185.945312 218.539062 186.320312 218.683594 186.652344 C 218.972656 187.3125 219.363281 187.835938 219.699219 188.316406 C 219.867188 188.554688 220.023438 188.785156 220.160156 189.011719 C 220.296875 189.238281 220.410156 189.460938 220.503906 189.6875 C 220.890625 190.585938 220.957031 191.433594 220.9375 192.011719 C 220.925781 192.300781 220.902344 192.527344 220.875 192.683594 C 220.851562 192.839844 220.832031 192.917969 220.832031 192.917969 C 220.785156 193.144531 221.082031 193.238281 221.152344 193 C 221.152344 193 221.183594 192.914062 221.222656 192.753906 C 221.261719 192.59375 221.3125 192.351562 221.351562 192.042969 C 221.386719 191.734375 221.40625 191.351562 221.378906 190.914062 C 221.347656 190.476562 221.269531 189.984375 221.097656 189.464844 C 221.011719 189.207031 220.90625 188.941406 220.777344 188.675781 C 220.648438 188.414062 220.503906 188.15625 220.355469 187.898438 C 220.054688 187.382812 219.738281 186.863281 219.5625 186.320312 C 219.472656 186.046875 219.421875 185.777344 219.40625 185.480469 C 219.390625 185.179688 219.402344 184.863281 219.414062 184.523438 C 219.429688 184.183594 219.441406 183.824219 219.414062 183.441406 C 219.390625 183.0625 219.320312 182.679688 219.21875 182.304688 C 219.015625 181.554688 218.640625 180.824219 218.078125 180.230469 C 217.6875 179.820312 217.25 179.511719 216.820312 179.253906 C 216.859375 179.25 216.898438 179.246094 216.9375 179.242188 C 217.546875 179.160156 218.132812 179.039062 218.6875 178.886719 C 219.242188 178.730469 219.773438 178.550781 220.28125 178.359375 C 220.789062 178.164062 221.277344 177.964844 221.746094 177.757812 C 222.128906 177.589844 222.503906 177.402344 222.882812 177.222656 C 223.261719 177.042969 223.671875 176.835938 224.101562 176.773438 C 224.574219 176.707031 225.003906 176.871094 225.449219 177.007812 C 225.636719 177.066406 225.828125 177.128906 226.027344 177.203125 C 226.226562 177.28125 226.429688 177.363281 226.609375 177.453125 C 226.789062 177.539062 226.949219 177.640625 227.078125 177.753906 C 227.140625 177.808594 227.199219 177.863281 227.246094 177.933594 C 227.269531 177.964844 227.296875 177.996094 227.320312 178.039062 C 227.34375 178.074219 227.367188 178.113281 227.386719 178.160156 C 227.472656 178.332031 227.539062 178.554688 227.605469 178.800781 C 227.667969 179.050781 227.726562 179.332031 227.808594 179.628906 C 227.894531 179.925781 228.007812 180.253906 228.203125 180.5625 C 228.402344 180.871094 228.671875 181.136719 228.960938 181.324219 C 229.253906 181.515625 229.554688 181.644531 229.84375 181.742188 C 230.132812 181.84375 230.410156 181.921875 230.675781 182 C 230.941406 182.074219 231.195312 182.148438 231.429688 182.242188 L 231.601562 182.3125 L 231.761719 182.386719 C 231.867188 182.445312 231.964844 182.511719 232.070312 182.570312 C 232.460938 182.832031 232.789062 183.195312 233.078125 183.566406 C 233.367188 183.941406 233.621094 184.324219 233.863281 184.675781 C 234.105469 185.03125 234.339844 185.355469 234.570312 185.628906 C 234.628906 185.695312 234.683594 185.761719 234.738281 185.824219 C 234.792969 185.886719 234.855469 185.945312 234.910156 186 C 234.964844 186.054688 235.015625 186.109375 235.066406 186.15625 C 235.121094 186.203125 235.175781 186.246094 235.226562 186.289062 C 235.273438 186.332031 235.320312 186.371094 235.367188 186.40625 C 235.414062 186.4375 235.460938 186.46875 235.503906 186.496094 C 235.589844 186.550781 235.65625 186.605469 235.71875 186.636719 C 235.84375 186.699219 235.910156 186.730469 235.910156 186.730469 C 236.097656 186.828125 236.199219 186.589844 236.039062 186.492188 C 236.039062 186.492188 235.980469 186.457031 235.875 186.390625 C 235.820312 186.355469 235.761719 186.300781 235.6875 186.246094 C 235.652344 186.214844 235.613281 186.1875 235.574219 186.152344 C 235.535156 186.117188 235.496094 186.078125 235.453125 186.035156 C 235.410156 185.992188 235.367188 185.949219 235.320312 185.902344 C 235.277344 185.855469 235.234375 185.800781 235.1875 185.746094 C 235.140625 185.6875 235.089844 185.632812 235.046875 185.570312 C 235 185.507812 234.953125 185.441406 234.902344 185.371094 C 234.710938 185.097656 234.511719 184.773438 234.304688 184.402344 C 234.097656 184.03125 233.875 183.621094 233.601562 183.199219 C 233.328125 182.773438 232.996094 182.328125 232.535156 181.953125 C 232.414062 181.863281 232.296875 181.769531 232.167969 181.6875 C 232.101562 181.648438 232.039062 181.613281 231.972656 181.574219 C 231.90625 181.539062 231.839844 181.503906 231.773438 181.46875 C 231.503906 181.335938 231.234375 181.230469 230.96875 181.128906 C 230.441406 180.929688 229.929688 180.738281 229.582031 180.457031 C 229.40625 180.320312 229.28125 180.164062 229.1875 179.984375 C 229.09375 179.808594 229.035156 179.589844 228.988281 179.34375 C 228.890625 178.859375 228.871094 178.269531 228.636719 177.632812 C 228.519531 177.320312 228.320312 176.988281 228.082031 176.742188 C 227.84375 176.492188 227.585938 176.308594 227.34375 176.160156 C 227.097656 176.007812 226.867188 175.890625 226.644531 175.78125 C 226.621094 175.769531 226.59375 175.761719 226.570312 175.746094 C 226.667969 175.714844 226.765625 175.6875 226.867188 175.660156 C 227.65625 175.433594 228.421875 175.300781 229.148438 175.28125 C 229.511719 175.277344 229.867188 175.289062 230.210938 175.332031 C 230.558594 175.378906 230.898438 175.453125 231.238281 175.539062 C 231.90625 175.71875 232.550781 175.960938 233.15625 176.214844 C 233.765625 176.464844 234.34375 176.722656 234.890625 176.953125 C 235.433594 177.183594 235.953125 177.386719 236.429688 177.550781 C 237.386719 177.886719 238.203125 178.03125 238.761719 178.082031 C 239.042969 178.105469 239.261719 178.109375 239.40625 178.109375 C 239.550781 178.109375 239.628906 178.105469 239.628906 178.105469 C 239.734375 178.101562 239.824219 178.078125 239.902344 178.046875 C 239.980469 178.011719 240.042969 177.964844 240.089844 177.914062 C 240.183594 177.808594 240.222656 177.675781 240.210938 177.550781 C 240.199219 177.421875 240.136719 177.296875 240.039062 177.203125 C 239.992188 177.15625 239.933594 177.117188 239.867188 177.09375 C 239.796875 177.0625 239.71875 177.042969 239.632812 177.042969 C 239.632812 177.042969 239.566406 177.042969 239.445312 177.027344 C 239.324219 177.019531 239.144531 177 238.910156 176.960938 C 238.441406 176.875 237.757812 176.695312 236.914062 176.3125 C 236.492188 176.128906 236.027344 175.894531 235.519531 175.625 C 235.011719 175.355469 234.460938 175.050781 233.847656 174.734375 C 233.234375 174.417969 232.558594 174.085938 231.785156 173.808594 C 231.398438 173.667969 230.988281 173.542969 230.554688 173.445312 C 230.117188 173.347656 229.660156 173.289062 229.195312 173.253906 C 228.265625 173.199219 227.300781 173.285156 226.351562 173.46875 C 225.398438 173.652344 224.453125 173.929688 223.527344 174.238281 C 222.59375 174.546875 221.675781 174.886719 220.75 175.195312 C 220.289062 175.351562 219.828125 175.496094 219.371094 175.628906 C 218.910156 175.757812 218.453125 175.867188 218 175.953125 C 217.09375 176.117188 216.203125 176.171875 215.378906 176.03125 C 215.277344 176.015625 215.171875 176.003906 215.074219 175.976562 C 214.972656 175.949219 214.871094 175.933594 214.769531 175.902344 L 214.644531 175.863281 C 215.117188 175.609375 215.558594 175.269531 215.929688 174.90625 C 216.679688 174.164062 217.191406 173.34375 217.703125 172.628906 C 217.960938 172.273438 218.214844 171.9375 218.488281 171.648438 C 218.761719 171.359375 219.046875 171.128906 219.371094 170.933594 C 220.03125 170.554688 220.859375 170.355469 221.738281 170.25 C 222.308594 170.171875 222.898438 170.125 223.496094 170.058594 C 223.710938 170.0625 223.964844 170.066406 224.238281 170.089844 C 224.710938 170.128906 225.257812 170.210938 225.773438 170.441406 C 226.03125 170.554688 226.28125 170.703125 226.507812 170.890625 C 226.738281 171.078125 226.976562 171.367188 227.351562 171.566406 C 227.542969 171.660156 227.753906 171.71875 227.957031 171.726562 C 228.160156 171.742188 228.351562 171.71875 228.527344 171.683594 C 228.878906 171.613281 229.1875 171.503906 229.480469 171.4375 C 229.769531 171.367188 230.042969 171.347656 230.316406 171.378906 C 230.582031 171.40625 230.835938 171.476562 231.066406 171.558594 C 231.527344 171.726562 231.890625 171.9375 232.144531 172.082031 C 232.394531 172.226562 232.539062 172.316406 232.539062 172.316406 C 232.640625 172.378906 232.726562 172.253906 232.628906 172.183594 C 232.628906 172.183594 232.496094 172.082031 232.253906 171.910156 C 232.011719 171.742188 231.660156 171.496094 231.183594 171.273438 C 230.949219 171.164062 230.675781 171.0625 230.371094 171.003906 C 230.070312 170.9375 229.726562 170.9375 229.394531 170.984375 C 229.066406 171.035156 228.746094 171.117188 228.445312 171.144531 C 228.140625 171.183594 227.867188 171.148438 227.660156 171.015625 C 227.445312 170.878906 227.253906 170.628906 227 170.367188 C 226.738281 170.105469 226.4375 169.890625 226.132812 169.722656 C 226.050781 169.679688 225.96875 169.636719 225.886719 169.597656 C 226.285156 169.46875 226.660156 169.320312 227.011719 169.164062 C 227.769531 168.828125 228.445312 168.484375 229.074219 168.210938 C 229.703125 167.9375 230.28125 167.75 230.824219 167.632812 C 231.363281 167.511719 231.847656 167.445312 232.25 167.398438 C 232.652344 167.351562 232.972656 167.324219 233.191406 167.308594 C 233.410156 167.289062 233.527344 167.28125 233.527344 167.28125 C 233.851562 167.253906 233.839844 166.832031 233.511719 166.828125 C 233.511719 166.828125 233.390625 166.828125 233.171875 166.828125 C 232.953125 166.828125 232.625 166.824219 232.210938 166.835938 C 231.796875 166.851562 231.289062 166.871094 230.703125 166.953125 C 230.117188 167.023438 229.449219 167.179688 228.769531 167.410156 C 228.082031 167.636719 227.371094 167.929688 226.628906 168.179688 C 226.257812 168.308594 225.878906 168.421875 225.496094 168.507812 C 225.113281 168.589844 224.714844 168.636719 224.296875 168.667969 C 223.464844 168.730469 222.570312 168.703125 221.609375 168.742188 C 221.128906 168.761719 220.628906 168.800781 220.117188 168.898438 C 219.605469 168.992188 219.082031 169.136719 218.574219 169.371094 C 218.324219 169.496094 218.074219 169.625 217.839844 169.789062 C 217.71875 169.863281 217.613281 169.949219 217.503906 170.03125 C 217.390625 170.113281 217.292969 170.203125 217.191406 170.292969 C 216.789062 170.648438 216.445312 171.03125 216.132812 171.394531 C 215.507812 172.128906 214.976562 172.808594 214.425781 173.253906 C 214.144531 173.480469 213.878906 173.644531 213.597656 173.765625 C 212.949219 174.042969 212.128906 174.191406 211.441406 173.953125 C 210.816406 173.738281 210.367188 173.167969 209.855469 172.777344 C 209.148438 172.242188 208.460938 171.675781 207.695312 171.222656 L 207.28125 170.976562 L 207.070312 170.851562 C 207 170.8125 206.921875 170.777344 206.851562 170.738281 L 206.40625 170.507812 C 206.257812 170.433594 206.09375 170.371094 205.9375 170.300781 C 205.777344 170.238281 205.621094 170.164062 205.457031 170.109375 L 204.96875 169.945312 C 204.640625 169.828125 204.304688 169.761719 203.972656 169.679688 C 202.636719 169.378906 201.3125 169.351562 200.082031 169.414062 C 198.84375 169.484375 197.6875 169.65625 196.597656 169.832031 C 192.414062 170.519531 186.671875 171.617188 183.414062 168.042969 C 182.671875 167.226562 182.394531 166.207031 182.238281 165.097656 L 184.511719 165.097656 L 184.5625 165.148438 C 184.558594 165.132812 184.558594 165.117188 184.554688 165.105469 L 184.511719 165.097656 C 188.414062 165.089844 192.304688 165.082031 196.15625 165.0625 C 199.246094 165.046875 202.308594 165.03125 205.335938 165.015625 C 208.363281 164.992188 211.351562 164.972656 214.292969 164.949219 C 220.175781 164.902344 225.859375 164.824219 231.25 164.753906 C 233.949219 164.71875 236.570312 164.679688 239.105469 164.644531 C 241.644531 164.601562 244.09375 164.558594 246.445312 164.515625 C 248.796875 164.46875 251.054688 164.429688 253.195312 164.386719 C 255.34375 164.339844 257.375 164.292969 259.289062 164.25 C 263.109375 164.167969 266.441406 164.066406 269.1875 163.992188 C 271.933594 163.921875 271.933594 163.511719 269.1875 163.441406 " fill-opacity="1" fill-rule="nonzero"/></g><path fill="#7e4d29" d="M 184.058594 162.335938 C 181.851562 162.335938 179.644531 162.332031 177.433594 162.328125 C 179.644531 162.332031 181.851562 162.335938 184.058594 162.335938 " fill-opacity="1" fill-rule="nonzero"/><path fill="#7e4d29" d="M 177.433594 162.328125 C 175.503906 162.332031 173.578125 162.335938 171.648438 162.335938 C 173.578125 162.335938 175.503906 162.332031 177.433594 162.328125 " fill-opacity="1" fill-rule="nonzero"/><g fill="#006837" fill-opacity="1"><g transform="translate(97.439372, 287.10218)"><g><path d="M 8.6875 -19.9375 C 10.488281 -19.9375 11.988281 -19.710938 13.1875 -19.265625 C 14.394531 -18.828125 15.300781 -18.171875 15.90625 -17.296875 C 16.507812 -16.429688 16.8125 -15.347656 16.8125 -14.046875 C 16.8125 -13.234375 16.675781 -12.492188 16.40625 -11.828125 C 16.132812 -11.171875 15.742188 -10.578125 15.234375 -10.046875 C 14.734375 -9.523438 14.128906 -9.070312 13.421875 -8.6875 L 19.234375 0 L 13.125 0 L 8.90625 -7.25 L 7.546875 -7.25 L 7.546875 0 L 2.15625 0 L 2.15625 -19.9375 Z M 8.609375 -15.859375 L 7.546875 -15.859375 L 7.546875 -11.296875 L 8.546875 -11.296875 C 9.367188 -11.296875 10.046875 -11.476562 10.578125 -11.84375 C 11.109375 -12.207031 11.375 -12.859375 11.375 -13.796875 C 11.375 -14.441406 11.15625 -14.945312 10.71875 -15.3125 C 10.28125 -15.675781 9.578125 -15.859375 8.609375 -15.859375 Z M 8.609375 -15.859375 "/></g></g></g><g fill="#006837" fill-opacity="1"><g transform="translate(118.564052, 287.10218)"><g><path d="M 20.8125 -10 C 20.8125 -8.457031 20.625 -7.054688 20.25 -5.796875 C 19.882812 -4.535156 19.3125 -3.453125 18.53125 -2.546875 C 17.75 -1.640625 16.742188 -0.941406 15.515625 -0.453125 C 14.285156 0.0234375 12.816406 0.265625 11.109375 0.265625 C 9.441406 0.265625 7.992188 0.0234375 6.765625 -0.453125 C 5.546875 -0.941406 4.539062 -1.640625 3.75 -2.546875 C 2.957031 -3.453125 2.367188 -4.535156 1.984375 -5.796875 C 1.609375 -7.054688 1.421875 -8.460938 1.421875 -10.015625 C 1.421875 -12.085938 1.765625 -13.890625 2.453125 -15.421875 C 3.140625 -16.953125 4.195312 -18.140625 5.625 -18.984375 C 7.0625 -19.828125 8.898438 -20.25 11.140625 -20.25 C 13.410156 -20.25 15.253906 -19.820312 16.671875 -18.96875 C 18.097656 -18.125 19.144531 -16.9375 19.8125 -15.40625 C 20.476562 -13.875 20.8125 -12.070312 20.8125 -10 Z M 7.09375 -10 C 7.09375 -8.789062 7.226562 -7.753906 7.5 -6.890625 C 7.769531 -6.035156 8.203125 -5.375 8.796875 -4.90625 C 9.390625 -4.445312 10.160156 -4.21875 11.109375 -4.21875 C 12.097656 -4.21875 12.882812 -4.445312 13.46875 -4.90625 C 14.0625 -5.375 14.488281 -6.035156 14.75 -6.890625 C 15.007812 -7.753906 15.140625 -8.789062 15.140625 -10 C 15.140625 -11.789062 14.835938 -13.207031 14.234375 -14.25 C 13.628906 -15.300781 12.597656 -15.828125 11.140625 -15.828125 C 10.171875 -15.828125 9.382812 -15.585938 8.78125 -15.109375 C 8.1875 -14.640625 7.753906 -13.96875 7.484375 -13.09375 C 7.222656 -12.226562 7.09375 -11.195312 7.09375 -10 Z M 7.09375 -10 "/></g></g></g><g fill="#006837" fill-opacity="1"><g transform="translate(143.041689, 287.10218)"><g><path d="M 20.8125 -10 C 20.8125 -8.457031 20.625 -7.054688 20.25 -5.796875 C 19.882812 -4.535156 19.3125 -3.453125 18.53125 -2.546875 C 17.75 -1.640625 16.742188 -0.941406 15.515625 -0.453125 C 14.285156 0.0234375 12.816406 0.265625 11.109375 0.265625 C 9.441406 0.265625 7.992188 0.0234375 6.765625 -0.453125 C 5.546875 -0.941406 4.539062 -1.640625 3.75 -2.546875 C 2.957031 -3.453125 2.367188 -4.535156 1.984375 -5.796875 C 1.609375 -7.054688 1.421875 -8.460938 1.421875 -10.015625 C 1.421875 -12.085938 1.765625 -13.890625 2.453125 -15.421875 C 3.140625 -16.953125 4.195312 -18.140625 5.625 -18.984375 C 7.0625 -19.828125 8.898438 -20.25 11.140625 -20.25 C 13.410156 -20.25 15.253906 -19.820312 16.671875 -18.96875 C 18.097656 -18.125 19.144531 -16.9375 19.8125 -15.40625 C 20.476562 -13.875 20.8125 -12.070312 20.8125 -10 Z M 7.09375 -10 C 7.09375 -8.789062 7.226562 -7.753906 7.5 -6.890625 C 7.769531 -6.035156 8.203125 -5.375 8.796875 -4.90625 C 9.390625 -4.445312 10.160156 -4.21875 11.109375 -4.21875 C 12.097656 -4.21875 12.882812 -4.445312 13.46875 -4.90625 C 14.0625 -5.375 14.488281 -6.035156 14.75 -6.890625 C 15.007812 -7.753906 15.140625 -8.789062 15.140625 -10 C 15.140625 -11.789062 14.835938 -13.207031 14.234375 -14.25 C 13.628906 -15.300781 12.597656 -15.828125 11.140625 -15.828125 C 10.171875 -15.828125 9.382812 -15.585938 8.78125 -15.109375 C 8.1875 -14.640625 7.753906 -13.96875 7.484375 -13.09375 C 7.222656 -12.226562 7.09375 -11.195312 7.09375 -10 Z M 7.09375 -10 "/></g></g></g><g fill="#006837" fill-opacity="1"><g transform="translate(167.519323, 287.10218)"><g><path d="M 10.953125 0 L 5.5625 0 L 5.5625 -15.53125 L 0.703125 -15.53125 L 0.703125 -19.9375 L 15.796875 -19.9375 L 15.796875 -15.53125 L 10.953125 -15.53125 Z M 10.953125 0 "/></g></g></g><g fill="#006837" fill-opacity="1"><g transform="translate(186.245141, 287.10218)"><g><path d="M 15.1875 -6.046875 C 15.1875 -4.972656 14.910156 -3.953125 14.359375 -2.984375 C 13.816406 -2.015625 12.972656 -1.226562 11.828125 -0.625 C 10.679688 -0.03125 9.195312 0.265625 7.375 0.265625 C 6.46875 0.265625 5.671875 0.222656 4.984375 0.140625 C 4.296875 0.0664062 3.65625 -0.0625 3.0625 -0.25 C 2.476562 -0.4375 1.867188 -0.679688 1.234375 -0.984375 L 1.234375 -5.78125 C 2.304688 -5.238281 3.394531 -4.820312 4.5 -4.53125 C 5.601562 -4.25 6.597656 -4.109375 7.484375 -4.109375 C 8.023438 -4.109375 8.460938 -4.171875 8.796875 -4.296875 C 9.140625 -4.421875 9.390625 -4.59375 9.546875 -4.8125 C 9.710938 -5.039062 9.796875 -5.300781 9.796875 -5.59375 C 9.796875 -5.9375 9.675781 -6.226562 9.4375 -6.46875 C 9.195312 -6.707031 8.8125 -6.957031 8.28125 -7.21875 C 7.757812 -7.488281 7.066406 -7.816406 6.203125 -8.203125 C 5.460938 -8.546875 4.796875 -8.898438 4.203125 -9.265625 C 3.609375 -9.628906 3.097656 -10.046875 2.671875 -10.515625 C 2.253906 -10.984375 1.929688 -11.53125 1.703125 -12.15625 C 1.472656 -12.789062 1.359375 -13.535156 1.359375 -14.390625 C 1.359375 -15.671875 1.675781 -16.742188 2.3125 -17.609375 C 2.945312 -18.472656 3.828125 -19.125 4.953125 -19.5625 C 6.085938 -20 7.394531 -20.21875 8.875 -20.21875 C 10.175781 -20.21875 11.347656 -20.070312 12.390625 -19.78125 C 13.429688 -19.488281 14.363281 -19.15625 15.1875 -18.78125 L 13.53125 -14.625 C 12.675781 -15.019531 11.835938 -15.332031 11.015625 -15.5625 C 10.191406 -15.789062 9.425781 -15.90625 8.71875 -15.90625 C 8.25 -15.90625 7.863281 -15.847656 7.5625 -15.734375 C 7.269531 -15.617188 7.050781 -15.46875 6.90625 -15.28125 C 6.769531 -15.09375 6.703125 -14.875 6.703125 -14.625 C 6.703125 -14.320312 6.820312 -14.046875 7.0625 -13.796875 C 7.3125 -13.546875 7.71875 -13.273438 8.28125 -12.984375 C 8.851562 -12.703125 9.628906 -12.335938 10.609375 -11.890625 C 11.578125 -11.453125 12.398438 -10.976562 13.078125 -10.46875 C 13.765625 -9.96875 14.285156 -9.363281 14.640625 -8.65625 C 15.003906 -7.957031 15.1875 -7.085938 15.1875 -6.046875 Z M 15.1875 -6.046875 "/></g></g></g><g fill="#006837" fill-opacity="1"><g transform="translate(204.595615, 287.10218)"><g><path d="M 2.515625 0 L 2.515625 -19.9375 L 6.734375 -19.9375 L 6.734375 -3.484375 L 14.8125 -3.484375 L 14.8125 0 Z M 2.515625 0 "/></g></g></g><g fill="#006837" fill-opacity="1"><g transform="translate(222.599045, 287.10218)"><g><path d="M 2.515625 0 L 2.515625 -19.9375 L 6.734375 -19.9375 L 6.734375 0 Z M 2.515625 0 "/></g></g></g><g fill="#006837" fill-opacity="1"><g transform="translate(234.073746, 287.10218)"><g><path d="M 20.1875 0 L 14.8125 0 L 6.15625 -15.078125 L 6.03125 -15.078125 C 6.0625 -14.453125 6.085938 -13.820312 6.109375 -13.1875 C 6.140625 -12.550781 6.171875 -11.914062 6.203125 -11.28125 C 6.234375 -10.644531 6.257812 -10.007812 6.28125 -9.375 L 6.28125 0 L 2.515625 0 L 2.515625 -19.9375 L 7.84375 -19.9375 L 16.5 -5 L 16.59375 -5 C 16.570312 -5.625 16.546875 -6.238281 16.515625 -6.84375 C 16.492188 -7.445312 16.472656 -8.050781 16.453125 -8.65625 C 16.429688 -9.269531 16.410156 -9.882812 16.390625 -10.5 L 16.390625 -19.9375 L 20.1875 -19.9375 Z M 20.1875 0 "/></g></g></g><g fill="#006837" fill-opacity="1"><g transform="translate(259.001168, 287.10218)"><g><path d="M 18.546875 0 L 13.75 0 L 8.515625 -8.390625 L 6.734375 -7.109375 L 6.734375 0 L 2.515625 0 L 2.515625 -19.9375 L 6.734375 -19.9375 L 6.734375 -10.8125 C 7.015625 -11.195312 7.289062 -11.582031 7.5625 -11.96875 C 7.832031 -12.363281 8.109375 -12.757812 8.390625 -13.15625 L 13.796875 -19.9375 L 18.484375 -19.9375 L 11.53125 -11.109375 Z M 18.546875 0 "/></g></g></g></svg>